<?xml version="1.0" standalone="no"?>
<!DOCTYPE svg PUBLIC "-//W3C//DTD SVG 20010904//EN"
 "http://www.w3.org/TR/2001/REC-SVG-20010904/DTD/svg10.dtd">
<svg version="1.0" xmlns="http://www.w3.org/2000/svg"
 width="500.000000pt" height="500.000000pt" viewBox="0 0 500.000000 500.000000"
 preserveAspectRatio="xMidYMid meet">
<metadata>
Created by potrace 1.11, written by Peter Selinger 2001-2013
</metadata>
<g transform="translate(0.000000,500.000000) scale(0.100000,-0.100000)"
fill="#000000" stroke="none">
<path d="M0 2500 l0 -2500 1223 1 c729 1 1176 5 1109 10 -428 31 -804 164
-1143 405 -112 79 -340 306 -426 424 -288 392 -443 864 -472 1439 -45 855 204
1576 716 2072 103 100 181 162 313 249 112 73 335 184 471 234 225 83 527 141
797 155 83 5 -453 9 -1220 9 l-1368 2 0 -2500z"/>
<path d="M2990 4989 c216 -10 482 -39 745 -84 180 -30 544 -103 554 -111 4 -4
-49 -1071 -55 -1101 l-4 -23 -228 0 -228 0 -73 373 c-41 204 -79 383 -85 396
-25 54 -276 154 -466 185 -221 37 -561 40 -740 6 -310 -58 -563 -189 -770
-399 -130 -131 -220 -257 -304 -426 -149 -298 -224 -615 -246 -1036 -39 -735
133 -1446 450 -1868 217 -287 463 -452 780 -523 92 -20 130 -23 315 -23 223 1
332 13 527 59 171 41 331 106 436 178 l42 29 0 739 0 740 -27 0 c-16 0 -194
14 -398 30 -203 16 -376 30 -382 30 -10 0 -13 45 -13 190 l0 190 955 0 955 0
0 -189 0 -190 -47 -7 c-27 -4 -111 -17 -188 -28 l-140 -22 -3 -882 -2 -881
-38 -6 c-125 -21 -221 -44 -413 -101 -511 -150 -774 -204 -1094 -224 -66 -4
401 -8 1038 -8 l1157 -2 0 2500 0 2500 -1092 -2 c-690 0 -1028 -4 -918 -9z"/>
</g>
</svg>
